<svg width="253" height="301" viewBox="0 0 253 301" fill="none" xmlns="http://www.w3.org/2000/svg">
<path d="M253 300.43C253 300.49 196.359 300.538 126.506 300.538C56.6533 300.538 0 300.49 0 300.43C0 300.37 56.6279 300.322 126.506 300.322C196.385 300.322 253 300.37 253 300.43Z" fill="#263238"/>
<path d="M78.1497 263.152L76.1172 293.239L89.1178 294.831L95.3415 264.107L78.1497 263.152Z" fill="#AA6551"/>
<path d="M76.2798 289.261L76.1595 290.121C76.1595 290.121 60.7416 294.032 60.2124 296.783L89.2864 300.526L90.1342 290.811C85.5522 292.253 81.0001 291.899 76.2737 289.261H76.2798Z" fill="#724A41"/>
<path d="M86.797 293.527C87.3382 293.755 87.6448 294.434 87.4404 294.987C87.2359 295.54 86.5444 295.858 85.9972 295.642C85.45 295.425 85.0591 294.62 85.3177 294.092C85.5823 293.569 86.4121 293.239 86.8932 293.581" fill="white"/>
<path d="M89.2863 300.532L89.4908 298.195L61.5473 295.467C61.5473 295.467 60.1823 295.864 60.2064 296.795L89.2803 300.538L89.2863 300.532Z" fill="white"/>
<path d="M76.0451 290.193C76.033 290.337 76.7306 290.493 77.374 291.034C78.0294 291.562 78.3061 292.223 78.4444 292.187C78.5766 292.175 78.4744 291.304 77.6927 290.655C76.911 290 76.033 290.06 76.0451 290.193Z" fill="#263238"/>
<path d="M72.8341 291.064C72.786 291.196 73.3693 291.514 73.7722 292.181C74.1991 292.83 74.2352 293.497 74.3795 293.509C74.5118 293.551 74.7162 292.728 74.1991 291.917C73.688 291.1 72.8581 290.932 72.8401 291.07L72.8341 291.064Z" fill="#263238"/>
<path d="M70.6333 294.482C70.7596 294.53 71.0482 293.845 70.7836 293.022C70.5251 292.199 69.8937 291.803 69.8215 291.917C69.7253 292.025 70.1041 292.494 70.3086 293.172C70.5311 293.845 70.495 294.452 70.6333 294.482Z" fill="#263238"/>
<path d="M156.61 245.553L181.649 262.356L189.528 251.893L166.033 231.142L156.61 245.553Z" fill="#AA6551"/>
<path d="M178.286 260.227L178.97 260.76C178.97 260.76 174.648 276.068 176.766 277.902L194.545 254.595L186.556 249.003C185.513 253.693 182.93 257.457 178.283 260.232L178.286 260.227Z" fill="#724A41"/>
<path d="M187.239 253.251C187.707 252.897 188.448 252.971 188.825 253.424C189.201 253.878 189.131 254.636 188.67 255.001C188.209 255.367 187.317 255.303 186.988 254.815C186.668 254.324 186.797 253.44 187.334 253.195" fill="white"/>
<path d="M194.55 254.598L192.628 253.252L176.294 276.088C176.294 276.088 175.955 277.469 176.774 277.914L194.552 254.606L194.55 254.598Z" fill="white"/>
<path d="M178.975 260.896C179.094 260.978 179.578 260.452 180.368 260.165C181.154 259.862 181.864 259.953 181.902 259.815C181.958 259.694 181.153 259.347 180.2 259.7C179.242 260.049 178.855 260.84 178.975 260.896Z" fill="#263238"/>
<path d="M178.124 264.112C178.215 264.22 178.782 263.874 179.561 263.858C180.336 263.813 180.932 264.115 181.014 263.996C181.117 263.903 180.506 263.314 179.545 263.356C178.582 263.391 178.022 264.025 178.132 264.11L178.124 264.112Z" fill="#263238"/>
<path d="M179.984 267.727C180.089 267.642 179.64 267.049 178.795 266.867C177.953 266.679 177.294 267.028 177.357 267.147C177.402 267.285 177.997 267.191 178.688 267.353C179.382 267.497 179.889 267.832 179.984 267.727Z" fill="#263238"/>
<path d="M132.233 16.3615C132.557 14.2828 134.427 12.6908 136.472 12.1861C138.516 11.6875 140.681 12.102 142.66 12.8109C144.884 13.6039 147.013 14.7814 148.613 16.5117C150.218 18.2419 151.252 20.5668 151.126 22.9219C151.006 25.1267 149.906 27.3435 150.519 29.4702C150.988 31.0803 152.353 32.2578 153.724 33.231C155.095 34.2043 156.58 35.1175 157.5 36.5172C158.42 37.923 158.577 40.0137 157.326 41.1371C156.219 42.1404 154.229 42.2546 153.76 43.6724C153.471 44.5555 153.964 45.4747 154.235 46.3578C154.806 48.2322 154.361 50.3229 153.327 51.987C152.293 53.6512 150.717 54.9248 149.01 55.892C146.015 57.5802 142.281 58.3732 139.118 57.0215C137.554 56.3546 136.219 55.2011 135.221 53.8194C133.556 51.5304 132.816 48.6708 132.642 45.8472C132.467 43.0236 132.828 40.1939 133.189 37.3884" fill="#020202"/>
<path d="M131.132 49.9805C133.742 50.7014 136.67 50.1187 138.805 48.4545C140.94 46.7964 142.22 44.093 142.16 41.3955C142.106 38.8723 140.964 36.301 141.745 33.9039C142.287 32.2578 143.664 30.9722 144.127 29.3021C144.818 26.8089 143.309 24.2917 141.872 22.1409C140.946 20.7651 140.002 19.3593 138.715 18.314C137.428 17.2687 135.72 16.6078 134.097 16.9503" fill="#020202"/>
<path d="M107.849 17.1725C107.987 19.0769 106.731 20.7771 105.462 22.2069C104.193 23.6367 102.78 25.1267 102.509 27.0131C102.022 30.3593 105.305 33.4713 104.626 36.7876C104.265 38.5658 102.804 39.9897 102.545 41.786C102.293 43.5222 103.225 45.2223 104.379 46.544C105.534 47.8657 106.941 48.9651 107.963 50.395C107.963 50.395 110.086 53.8794 116.634 51.6506" fill="#020202"/>
<path d="M137.145 20.0862C137.193 18.362 135.594 17.0223 133.988 16.3915C132.377 15.7607 130.591 15.5204 129.154 14.5532C127.885 13.7001 127.031 12.3664 125.955 11.279C123.315 8.60556 119.202 7.50014 115.576 8.4854C111.956 9.47066 108.967 12.5166 108.053 16.1572C107.434 18.6144 107.855 21.5221 109.797 23.1562C112.046 25.0546 115.389 24.6341 118.276 24.0393C121.162 23.4505 124.427 22.8678 126.839 24.562C128.294 25.5833 129.124 27.2414 130.014 28.7794C130.904 30.3173 132.016 31.8853 133.694 32.4621C135.371 33.0388 137.656 32.0415 137.717 30.2693" fill="#020202"/>
<path d="M130.326 20.4407C131.818 20.6029 132.942 21.8765 132.906 23.3784L131.18 62.4043C131.108 67.0122 124.367 69.6015 119.424 69.4874C114.439 69.3733 114.277 66.9281 114.211 62.5425C114.109 55.2192 114.115 52.4676 114.115 52.5097C114.115 52.5097 107.813 51.4523 106.526 43.2338C105.889 39.1486 106.105 32.45 106.466 26.971C106.791 22.0447 110.068 16.001 114.987 16.5357L130.326 20.4467V20.4407Z" fill="#B26633"/>
<path d="M107.921 32.3778C107.903 32.9366 108.354 33.4112 108.937 33.4412C109.515 33.4712 110.008 33.0507 110.026 32.492C110.044 31.9333 109.593 31.4587 109.01 31.4286C108.426 31.3986 107.939 31.8191 107.921 32.3778Z" fill="#020202"/>
<path d="M107.651 29.5663C107.783 29.7045 108.583 29.1157 109.713 29.1217C110.85 29.1097 111.68 29.6985 111.8 29.5603C111.86 29.5002 111.728 29.2479 111.367 28.9836C111.012 28.7192 110.405 28.4609 109.695 28.4669C108.986 28.4669 108.39 28.7252 108.054 28.9956C107.705 29.2599 107.585 29.5122 107.651 29.5723V29.5663Z" fill="#020202"/>
<path d="M118.462 32.5761C118.438 33.1348 118.895 33.6094 119.479 33.6395C120.056 33.6695 120.549 33.249 120.567 32.6902C120.585 32.1315 120.134 31.6569 119.551 31.6269C118.967 31.5968 118.48 32.0174 118.462 32.5761Z" fill="#020202"/>
<path d="M119.07 30.131C119.202 30.2692 120.002 29.6804 121.138 29.6864C122.275 29.6744 123.105 30.2632 123.225 30.125C123.285 30.0649 123.153 29.8126 122.792 29.5483C122.437 29.2839 121.83 29.0256 121.12 29.0316C120.411 29.0316 119.815 29.2899 119.479 29.5603C119.13 29.8246 119.01 30.0769 119.076 30.137L119.07 30.131Z" fill="#020202"/>
<path d="M114.933 39.0885C114.933 39.0224 114.235 38.9022 113.093 38.752C112.804 38.722 112.527 38.6619 112.479 38.4637C112.413 38.2534 112.533 37.941 112.672 37.6046C112.948 36.9017 113.231 36.1687 113.531 35.3997C114.728 32.2637 115.594 29.6864 115.468 29.6384C115.341 29.5903 114.265 32.0955 113.068 35.2315C112.78 36.0065 112.503 36.7395 112.245 37.4484C112.136 37.7788 111.944 38.1513 112.094 38.5838C112.172 38.8001 112.383 38.9563 112.569 39.0104C112.756 39.0644 112.918 39.0704 113.062 39.0825C114.211 39.1485 114.927 39.1545 114.933 39.0885Z" fill="#020202"/>
<path d="M114.121 52.5037C114.121 52.5037 119.653 52.8701 125.137 49.5959C125.137 49.5959 122.347 55.2372 114.121 54.4502V52.5037Z" fill="#724A41"/>
<path d="M136.069 47.4692C133.808 47.9258 131.343 47.2289 129.653 45.6609C127.963 44.0929 127.091 41.6898 127.38 39.4009C127.638 37.3823 128.727 35.3277 128.023 33.4232C127.097 30.9 123.555 30.119 122.617 27.6018C122.07 26.1359 122.563 24.4237 121.944 22.9879C121.361 21.6362 119.942 20.8612 118.558 20.3625C117.175 19.8639 115.69 19.5155 114.53 18.6143C113.369 17.7132 112.641 16.013 113.393 14.7454C119.527 15.4783 125.576 16.9502 131.361 19.1069C132.702 19.6056 134.115 20.2124 134.908 21.4019C135.75 22.6635 135.708 24.2916 135.636 25.8055C135.293 33.1829 134.945 40.5604 134.602 47.9378" fill="#020202"/>
<path d="M140.417 20.7771C140.417 20.7771 140.513 20.8732 140.555 21.1135C140.603 21.3478 140.537 21.7443 140.236 22.0988C139.948 22.4472 139.442 22.8017 138.763 22.8437C138.09 22.8617 137.386 22.5614 136.676 22.2189C135.967 21.8645 135.191 21.5461 134.277 21.51C133.375 21.4559 132.395 21.5941 131.373 21.7743C130.35 21.9546 129.262 22.1889 128.09 22.1949C126.935 22.2129 125.636 21.8645 124.722 20.9693C123.802 20.0922 123.273 18.9808 122.786 17.9655C122.299 16.9382 121.842 15.9469 121.216 15.1479C120.002 13.4897 117.927 13.0332 116.472 13.4177C114.969 13.7961 114.061 14.8175 113.61 15.5324C113.147 16.2713 113.05 16.7639 113.008 16.7519C112.996 16.7519 113.008 16.6258 113.068 16.3975C113.135 16.1692 113.249 15.8388 113.465 15.4483C113.892 14.6853 114.794 13.5739 116.394 13.1233C117.182 12.913 118.114 12.895 119.034 13.1773C119.96 13.4417 120.862 14.0485 121.523 14.9016C122.197 15.7486 122.672 16.7639 123.159 17.7852C123.652 18.8005 124.169 19.8639 125.011 20.6569C125.841 21.468 126.995 21.7804 128.09 21.7804C129.196 21.7804 130.272 21.5581 131.307 21.3899C132.341 21.2156 133.345 21.0835 134.301 21.1616C135.263 21.2156 136.117 21.5821 136.809 21.9486C137.506 22.309 138.162 22.5974 138.751 22.6034C139.34 22.5974 139.821 22.291 140.104 21.9906C140.393 21.6782 140.477 21.3418 140.459 21.1195C140.447 20.8972 140.381 20.7831 140.405 20.7771H140.417Z" fill="#333332"/>
<path d="M141.337 21.5582C141.228 21.6483 139.972 19.5516 137.44 18.1278C134.933 16.6619 132.491 16.6319 132.515 16.4937C132.515 16.4456 133.117 16.3795 134.079 16.5117C135.041 16.6379 136.358 17.0163 137.651 17.7553C138.943 18.5002 139.93 19.4495 140.525 20.2124C141.126 20.9754 141.373 21.5281 141.331 21.5521L141.337 21.5582Z" fill="#333332"/>
<path d="M132.112 16.0731C132.112 16.0731 132.088 16.1632 131.998 16.3134C131.896 16.4516 131.739 16.6679 131.469 16.8722C130.946 17.2867 129.959 17.6652 128.745 17.4789C127.53 17.2927 126.279 16.4636 125.185 15.3582C124.072 14.2768 123.038 12.883 121.529 12.024C120.02 11.1769 118.252 11.0447 116.808 11.4232C115.341 11.7897 114.229 12.6728 113.513 13.5559C112.792 14.445 112.437 15.3342 112.256 15.947C112.076 16.5658 112.046 16.9322 112.004 16.9262C111.992 16.9262 111.986 16.8361 111.992 16.6619C111.992 16.4877 112.028 16.2293 112.094 15.9109C112.232 15.2681 112.551 14.3309 113.273 13.3757C113.988 12.4325 115.149 11.4652 116.7 11.0507C118.228 10.6302 120.104 10.7503 121.721 11.6575C123.339 12.5827 124.367 14.0185 125.449 15.0879C126.508 16.1813 127.668 16.9863 128.787 17.1906C129.905 17.4008 130.843 17.0944 131.36 16.746C131.89 16.3915 132.064 16.0551 132.1 16.0791L132.112 16.0731Z" fill="#333332"/>
<path d="M131.733 50.9958C131.733 50.9958 131.854 51.0439 132.1 51.0979C132.341 51.146 132.708 51.1941 133.183 51.2061C134.121 51.2241 135.534 51.0859 137.073 50.329C138.607 49.602 140.23 48.1902 141.216 46.1416C142.22 44.129 142.593 41.5037 141.92 38.9805C141.625 37.7309 141.252 36.5473 141.198 35.3819C141.108 34.2104 141.487 33.147 142.01 32.1918C142.527 31.2366 143.062 30.2813 143.285 29.278C143.525 28.2928 143.513 27.3316 143.363 26.4905C143.062 24.7963 142.287 23.5888 141.667 22.8919C141.355 22.5374 141.078 22.2911 140.88 22.1469C140.681 21.9967 140.573 21.9307 140.561 21.9427C140.531 21.9787 140.952 22.2911 141.523 23.018C142.088 23.733 142.786 24.9285 143.026 26.5506C143.147 27.3556 143.134 28.2627 142.894 29.1879C142.671 30.1191 142.16 31.0083 141.619 31.9875C141.355 32.4801 141.096 33.0028 140.928 33.5856C140.759 34.1683 140.699 34.7931 140.723 35.4119C140.777 36.6615 141.162 37.875 141.451 39.1006C142.1 41.5337 141.751 44.0089 140.819 45.9494C139.899 47.9139 138.378 49.2836 136.923 50.0226C135.462 50.7916 134.103 50.9778 133.189 51.0138C132.263 51.0439 131.751 50.9478 131.745 50.9958H131.733Z" fill="#333332"/>
<path d="M146.297 14.6132C146.327 14.5711 145.852 14.1626 144.896 13.8863C143.958 13.6099 142.497 13.5378 141.09 14.1746C139.683 14.8235 138.787 15.9769 138.384 16.8661C137.969 17.7732 137.969 18.398 138.017 18.4041C138.095 18.4221 138.222 17.8333 138.691 17.0283C139.142 16.2293 140.014 15.208 141.294 14.6192C142.575 14.0365 143.91 14.0425 144.818 14.2227C145.738 14.3969 146.261 14.6853 146.303 14.6132H146.297Z" fill="#333332"/>
<path d="M140.218 19.7978C140.218 19.7978 140.194 19.6116 140.182 19.2632C140.164 18.9207 140.23 18.392 140.543 17.8213C140.856 17.2506 141.421 16.6378 142.245 16.2233C143.069 15.8087 144.175 15.6826 145.251 16.1452C146.328 16.5777 147.29 17.5149 147.939 18.7165C148.595 19.924 148.841 21.4199 148.775 22.9759C148.721 24.5379 148.372 26.16 148.005 27.8421C147.651 29.5303 147.278 31.3206 147.374 33.195C147.476 35.0814 148.114 36.8116 148.769 38.4096C149.431 40.0137 150.128 41.5216 150.555 43.0235C151 44.5195 151.138 46.0154 150.928 47.3851C150.735 48.7549 150.29 49.9924 149.785 51.0618C148.751 53.2066 147.554 54.7505 146.773 55.8319C146.394 56.3306 146.087 56.7391 145.847 57.0695C145.636 57.3519 145.534 57.5081 145.546 57.5201C145.558 57.5321 145.69 57.3999 145.925 57.1356C146.159 56.8712 146.502 56.4747 146.923 55.9581C147.759 54.9067 149.004 53.3868 150.098 51.218C150.633 50.1306 151.108 48.869 151.331 47.4452C151.565 46.0274 151.433 44.4474 150.988 42.9034C150.561 41.3474 149.857 39.8214 149.208 38.2294C148.565 36.6434 147.957 34.9612 147.861 33.1649C147.711 29.5603 149.172 26.2261 149.226 22.9819C149.28 21.3779 149.004 19.7918 148.294 18.5182C147.59 17.2506 146.55 16.2653 145.378 15.8208C144.217 15.3401 142.978 15.5024 142.118 15.977C141.247 16.4456 140.675 17.1184 140.369 17.7312C140.062 18.35 140.026 18.9147 140.08 19.2692C140.128 19.6236 140.212 19.7978 140.212 19.7978H140.218Z" fill="#333332"/>
<path d="M115.36 41.8461C115.552 42.3267 115.744 42.8193 116.063 43.2278C116.382 43.6364 116.851 43.9608 117.374 43.9848C117.927 44.0088 118.462 43.6844 118.769 43.2218C119.076 42.7592 119.184 42.1885 119.16 41.6358C119.136 41.1372 118.907 40.5364 118.408 40.4823C118.204 40.4583 117.999 40.5364 117.807 40.6145C116.935 40.969 116.063 41.3234 115.191 41.6718" fill="#724A41"/>
<path d="M116.406 43.9968C116.418 43.9127 116.995 44.147 117.801 43.8226C118.192 43.6664 118.619 43.354 118.853 42.8674C119.088 42.3868 119.136 41.7319 118.889 41.1552C118.829 41.011 118.745 40.8788 118.661 40.7647C118.559 40.6565 118.577 40.6626 118.462 40.6746C118.354 40.7046 118.186 40.7827 118.041 40.8368C117.897 40.8969 117.753 40.9569 117.614 41.011C117.055 41.2393 116.55 41.4375 116.117 41.5937C115.263 41.9122 114.716 42.0804 114.692 42.0203C114.668 41.9602 115.161 41.6839 115.985 41.2874C116.394 41.0891 116.887 40.8608 117.44 40.6145C117.578 40.5544 117.723 40.4883 117.861 40.4283C118.011 40.3682 118.132 40.2961 118.336 40.23C118.438 40.2 118.583 40.1879 118.727 40.242C118.865 40.2961 118.949 40.3922 119.016 40.4703C119.13 40.6265 119.238 40.7887 119.31 40.9689C119.617 41.6839 119.545 42.4709 119.232 43.0596C118.913 43.6604 118.366 43.9968 117.903 44.135C117.434 44.2792 117.025 44.2431 116.773 44.1771C116.514 44.111 116.388 44.0208 116.4 43.9968H116.406Z" fill="#020202"/>
<path d="M145.522 144.277C145.54 144.367 145.558 144.475 145.576 144.571C145.54 144.247 145.504 143.977 145.522 144.277Z" fill="#263238"/>
<path d="M153.225 151.318L154.385 161.567L163.772 170.134C163.772 170.134 164.566 168.848 164.139 167.779C163.712 166.71 166.279 169.173 166.279 169.173V175.06C166.279 175.06 167.885 175.703 168.42 174.309C168.955 172.916 169.28 167.887 169.28 167.887L168.528 167.353C168.528 167.353 169.49 166.493 169.28 164.998C169.28 164.998 170.14 163.177 169.815 160.714C169.496 158.251 168.853 156.965 168.853 156.965L161.168 148.392L153.231 151.318H153.225Z" fill="#B26633"/>
<path d="M157.939 161.183C157.855 161.243 158.997 162.877 160.711 164.625C162.419 166.385 164.018 167.569 164.078 167.485C164.151 167.395 162.677 166.085 160.994 164.349C159.298 162.612 158.029 161.111 157.939 161.177V161.183Z" fill="#724A41"/>
<path d="M164.529 163.057C164.451 163.135 165.455 164.289 166.76 165.628C168.071 166.968 169.196 168.001 169.28 167.923C169.358 167.851 168.36 166.698 167.049 165.352C165.738 164.006 164.608 162.979 164.535 163.057H164.529Z" fill="#724A41"/>
<path d="M165.798 160.708C165.726 160.798 166.622 161.645 167.572 162.817C168.534 163.982 169.184 165.028 169.286 164.974C169.376 164.925 168.865 163.766 167.879 162.564C166.899 161.357 165.864 160.624 165.798 160.708Z" fill="#724A41"/>
<path d="M166.881 158.287C166.808 158.371 167.488 159.074 168.276 159.987C169.063 160.894 169.665 161.669 169.755 161.609C169.845 161.555 169.382 160.66 168.57 159.729C167.764 158.798 166.947 158.209 166.881 158.287Z" fill="#724A41"/>
<path d="M97.7946 35.5201C97.7465 35.6282 96.2071 35.0334 94.361 34.1864C92.5149 33.3393 91.0597 32.5703 91.1078 32.4622C91.156 32.354 92.6953 32.9488 94.5414 33.7959C96.3875 34.6369 97.8427 35.4119 97.7946 35.5201Z" fill="#455B64"/>
<path d="M86.9529 51.2662C86.1772 51.2362 84.3011 52.3536 82.7917 54.4262C82.7677 54.4563 82.7376 54.4863 82.7136 54.5163C81.6432 55.9101 80.633 51.9331 80.4526 50.4492C80.3323 49.4879 79.2921 48.8992 78.354 49.2476L73.375 51.5726L71.9198 51.6207C71.1862 51.891 70.7773 52.648 70.9697 53.3749L73.351 61.2329L73.4051 63.3777L83.3811 64.7294L83.5374 59.3585C83.6877 58.7397 83.8862 58.0068 84.1507 57.1717C84.3913 56.4208 84.7581 55.7059 85.2512 55.0751C85.7623 54.4142 86.4598 53.5792 87.0431 53.1106C87.0972 53.0745 87.1574 53.0265 87.2055 53.0024C87.3257 52.9363 87.4159 52.8522 87.4881 52.7561C87.9932 52.2094 87.7166 51.2962 86.9589 51.2662H86.9529Z" fill="#B26633"/>
<path d="M86.7545 27.0552C86.7545 27.0552 80.9337 25.9438 72.5693 18.3501C64.2049 10.7624 60.0859 0.483237 59.0937 0.561337C58.1015 0.639437 53.6878 -1.25298 45.9247 16.9623C38.1616 35.1836 41.5411 39.2628 43.1827 39.1847C44.8303 39.1066 55.9187 35.6762 62.9241 36.271C69.9295 36.8658 79.0095 40.2481 79.0095 40.2481L86.7485 27.0552H86.7545Z" fill="#5CBD76"/>
<path d="M99.322 36.5053L97.4519 40.3082L96.6161 42.0143C95.4675 44.3513 92.6894 45.3846 90.2962 44.3633L77.7766 40.3983L84.5295 23.7209L97.1031 29.9629C99.5144 31.1645 100.507 34.0842 99.322 36.4993V36.5053Z" fill="#263238"/>
<path d="M92.3466 42.7113L88.6124 50.5573L86.622 50.0647L74.0183 60.9145L70.2119 53.9636C70.2119 53.9636 77.7465 50.4672 79.0754 47.7096C80.4104 44.9521 78.7627 44.3814 78.7627 44.3814L82.2384 40.2061L92.3466 42.7052V42.7113Z" fill="#263238"/>
<path d="M46.6042 17.2687C42.4791 27.1333 40.8916 35.8685 43.0624 36.7757C45.2332 37.6828 50.3384 30.4195 54.4635 20.5489C58.5886 10.6843 60.176 1.94914 58.0053 1.04198C55.8345 0.134815 50.7293 7.3981 46.6042 17.2687Z" fill="#263238"/>
<path d="M100.543 41.8941L97.1514 40.9329L99.1177 36.9258L101.685 38.4157L100.543 41.8941Z" fill="#455B64"/>
<g opacity="0.3">
<path d="M81.042 41.6418L90.2362 47.1449L91.3006 44.904L81.042 41.6418Z" fill="black"/>
</g>
<path d="M96.8266 37.8991C96.7785 38.0073 95.0827 37.4065 93.0382 36.5534C90.9937 35.7003 89.3702 34.9193 89.4183 34.8052C89.4664 34.697 91.1621 35.2978 93.2066 36.1569C95.2511 37.01 96.8747 37.791 96.8266 37.9051V37.8991Z" fill="#455B64"/>
<path d="M95.5938 40.4043C95.5758 40.4644 95.1729 40.3803 94.5355 40.2C94.2168 40.1099 93.832 39.9958 93.411 39.8636C92.9901 39.7254 92.5572 39.5212 92.0881 39.3229C90.224 38.5239 88.7989 37.7249 88.841 37.6287C88.8891 37.5086 90.4104 38.1334 92.2565 38.9264C92.7195 39.1186 93.1525 39.3349 93.5554 39.4911C93.9583 39.6413 94.3251 39.7855 94.6317 39.9057C95.2391 40.158 95.6119 40.3382 95.5938 40.3983V40.4043Z" fill="#455B64"/>
<path d="M55.5218 14.8475C55.5218 14.8475 50.4045 11.8737 47.8489 18.7405C45.2933 25.6073 50.615 26.5685 50.615 26.5685C52.6835 23.1562 54.3311 19.2572 55.5278 14.8475H55.5218Z" fill="#FAFBFB"/>
<path d="M60.639 6.61108C60.639 6.61108 60.6089 7.07968 60.4766 7.91475C60.3383 8.74982 60.1519 9.95736 59.8693 11.4473C59.6769 12.1802 59.4664 12.9852 59.2439 13.8443C59.1297 14.2769 59.0094 14.7215 58.8891 15.178C58.829 15.4063 58.7689 15.6406 58.7027 15.8749C58.6366 16.1092 58.5404 16.3375 58.4622 16.5778C58.1254 17.521 57.7767 18.5123 57.4099 19.5396C57.3197 19.7979 57.2235 20.0563 57.1333 20.3146C57.0431 20.5789 56.9108 20.8253 56.8025 21.0836C56.574 21.5942 56.3395 22.1169 56.099 22.6456C55.8585 23.1743 55.6239 23.6909 55.3954 24.2076C55.2752 24.4599 55.173 24.7242 55.0407 24.9646C54.9084 25.2049 54.7761 25.4452 54.6438 25.6855C54.1146 26.6407 53.6035 27.5599 53.1164 28.431C52.9902 28.6473 52.8819 28.8695 52.7496 29.0738C52.6113 29.2781 52.479 29.4763 52.3467 29.6746C52.0822 30.0711 51.8236 30.4556 51.577 30.822C51.0779 31.561 50.6149 32.2459 50.194 32.8767C49.268 34.0662 48.4862 35.0094 47.9511 35.6642C47.4099 36.3131 47.1032 36.6675 47.0791 36.6495C47.0551 36.6315 47.3197 36.247 47.8188 35.5621C48.3359 34.8652 49.0635 33.892 49.9535 32.6964C50.3624 32.0596 50.8073 31.3687 51.2824 30.6238C51.5229 30.2513 51.7695 29.8668 52.028 29.4763C52.1543 29.2781 52.2866 29.0798 52.4189 28.8756C52.5452 28.6713 52.6534 28.449 52.7737 28.2327C53.2487 27.3556 53.7478 26.4424 54.265 25.4932C54.3973 25.2529 54.5235 25.0186 54.6558 24.7723C54.7881 24.532 54.8903 24.2737 55.0106 24.0213C55.2391 23.5107 55.4736 22.994 55.7081 22.4714C55.9426 21.9487 56.1772 21.432 56.4117 20.9214C56.5199 20.663 56.6522 20.4167 56.7424 20.1584C56.8386 19.9001 56.9288 19.6417 57.019 19.3894C57.3918 18.3741 57.7466 17.3949 58.0894 16.4577C58.1735 16.2234 58.2637 15.9951 58.3359 15.7668C58.4021 15.5325 58.4682 15.3042 58.5283 15.0759C58.6546 14.6253 58.7809 14.1808 58.9012 13.7542C59.1417 12.9071 59.3702 12.1141 59.5746 11.3872C59.8813 9.92733 60.1339 8.74381 60.3143 7.89673C60.4947 7.07368 60.6089 6.61709 60.639 6.6231V6.61108Z" fill="#263238"/>
<path d="M76.6102 47.7457C76.075 47.9739 75.8104 48.6048 76.0149 49.1695C76.3997 50.2509 77.0191 51.951 77.4821 52.9844C77.6324 53.3148 77.7948 53.6512 78.0533 53.9035C78.3119 54.1499 78.6907 54.294 79.0215 54.1679C79.3702 54.0357 79.5747 53.6392 79.5987 53.2487C79.6228 52.8642 79.5085 52.4857 79.3943 52.1132C79.0696 51.0979 78.5043 49.584 78.0233 48.3524C77.8008 47.7757 77.1694 47.5053 76.6162 47.7396L76.6102 47.7457Z" fill="#AA6551"/>
<path d="M75.1009 49.7463C74.5657 49.9746 74.3011 50.6054 74.5056 51.1701C74.8904 52.2515 75.5098 53.9516 75.9728 54.985C76.1231 55.3154 76.2855 55.6518 76.5441 55.9041C76.8026 56.1505 77.1815 56.2946 77.5122 56.1685C77.861 56.0363 78.0654 55.6398 78.0895 55.2493C78.1135 54.8648 77.9993 54.4863 77.885 54.1139C77.5603 53.0986 76.9951 51.5846 76.514 50.353C76.2915 49.7763 75.6601 49.506 75.1069 49.7403L75.1009 49.7463Z" fill="#AA6551"/>
<path d="M73.6397 51.0138C73.1586 51.212 72.9181 51.7587 73.0985 52.2454C73.4472 53.1826 74.0065 54.6544 74.4274 55.5496C74.5597 55.838 74.71 56.1263 74.9445 56.3426C75.1791 56.5589 75.5218 56.679 75.8225 56.5709C76.1351 56.4567 76.3216 56.1143 76.3456 55.7779C76.3697 55.4414 76.2674 55.117 76.1592 54.7986C75.8646 53.9215 75.3534 52.6118 74.9205 51.5425C74.716 51.0438 74.1448 50.8095 73.6517 51.0138H73.6397Z" fill="#AA6551"/>
<path d="M71.7153 51.4404C71.2283 51.6387 70.9877 52.1854 71.1741 52.678C71.5229 53.6212 72.0821 55.0991 72.5091 55.9942C72.6474 56.2826 72.7917 56.577 73.0262 56.7932C73.2607 57.0095 73.6095 57.1357 73.9041 57.0275C74.2229 56.9134 74.4033 56.565 74.4333 56.2285C74.4574 55.8921 74.3551 55.5617 74.2469 55.2433C73.9523 54.3601 73.4351 53.0445 73.0022 51.9691C72.7977 51.4704 72.2265 51.2301 71.7274 51.4344L71.7153 51.4404Z" fill="#AA6551"/>
<path d="M77.945 53.9455C77.8427 53.9876 77.3918 53.1405 76.9348 52.0471C76.4777 50.9537 76.1891 50.0345 76.2913 49.9925C76.3936 49.9504 76.8446 50.7975 77.3016 51.8909C77.7586 52.9843 78.0472 53.9035 77.945 53.9455Z" fill="#724A41"/>
<path d="M76.2913 55.6037C76.189 55.6458 75.702 54.6605 75.2089 53.4169C74.7158 52.1673 74.3971 51.122 74.4993 51.0799C74.6015 51.0379 75.0886 52.0171 75.5817 53.2667C76.0808 54.5163 76.3995 55.5677 76.2913 55.6037Z" fill="#724A41"/>
<path d="M74.5716 55.826C74.4754 55.88 73.9402 55.057 73.4772 53.9396C73.0142 52.8281 72.8037 51.8669 72.9059 51.8369C73.0142 51.8008 73.387 52.69 73.844 53.7834C74.301 54.8768 74.6678 55.7719 74.5656 55.82L74.5716 55.826Z" fill="#724A41"/>
<path d="M144.641 206.237L139.385 164.099C142.807 156.114 144.052 148.136 143.053 143.18C143.114 143.697 143.138 144.339 142.999 142.886C142.145 134.108 134.563 127.662 134.563 127.662L132.025 117.016L99.5537 121.576L100.78 139.395L79.7642 213.332L75.9458 275.83L92.9151 277.818C92.9151 277.818 99.5658 246.566 101.364 233.505C103.011 221.508 103.047 212.136 103.047 212.136L118.995 188.304C120.883 198.144 123.017 210.286 124.112 216.624C124.605 219.459 125.82 222.109 127.648 224.338L169.367 257.146V237.386C165.399 227.918 144.641 206.237 144.641 206.237Z" fill="#020202"/>
<path d="M103.715 134.799C103.667 134.817 103.384 134.15 103.036 133.033C102.687 131.916 102.296 130.348 102.031 128.581C101.767 126.815 101.677 125.199 101.677 124.034C101.677 122.868 101.749 122.147 101.803 122.147C101.863 122.147 101.893 122.868 101.965 124.028C102.037 125.187 102.17 126.779 102.434 128.527C102.699 130.275 103.042 131.837 103.318 132.961C103.589 134.09 103.781 134.781 103.721 134.799H103.715Z" fill="#455B64"/>
<path d="M105.218 122.676C105.218 122.676 105.345 122.556 105.639 122.489C105.928 122.429 106.391 122.423 106.884 122.67C107.365 122.892 107.906 123.421 107.99 124.184C108.063 124.923 107.702 125.776 106.956 126.226C106.187 126.701 105.236 126.473 104.683 126.016C104.094 125.565 103.853 124.844 103.914 124.31C103.956 123.763 104.148 123.373 104.274 123.12C104.413 122.862 104.515 122.736 104.533 122.748C104.557 122.76 104.503 122.91 104.419 123.18C104.334 123.445 104.196 123.841 104.196 124.322C104.178 124.802 104.401 125.355 104.906 125.728C105.393 126.094 106.15 126.256 106.746 125.884C107.347 125.523 107.666 124.814 107.618 124.22C107.576 123.613 107.161 123.15 106.752 122.922C105.886 122.435 105.224 122.754 105.224 122.676H105.218Z" fill="#455B64"/>
<path d="M126.565 131.273C126.565 131.273 126.373 131.381 125.994 131.507C125.621 131.645 125.056 131.777 124.352 131.879C123.649 131.988 122.795 132.024 121.851 131.97C120.913 131.891 119.879 131.717 118.838 131.399C117.798 131.062 116.86 130.612 116.042 130.131C115.242 129.633 114.563 129.116 114.052 128.617C113.535 128.125 113.15 127.698 112.927 127.368C112.693 127.049 112.572 126.863 112.597 126.845C112.657 126.797 113.186 127.494 114.244 128.401C114.767 128.858 115.447 129.338 116.235 129.807C117.034 130.257 117.954 130.684 118.959 131.008C119.969 131.321 120.967 131.501 121.881 131.597C122.795 131.669 123.625 131.669 124.316 131.597C125.705 131.465 126.541 131.201 126.559 131.273H126.565Z" fill="#455B64"/>
<path d="M137.004 163.071C137.004 163.071 136.89 163.252 136.65 163.564C136.379 163.906 136.024 164.363 135.579 164.934C134.677 166.147 133.378 167.896 131.815 170.1C128.682 174.498 124.449 180.638 119.818 187.451C115.212 194.263 111.039 200.427 107.996 204.933C106.499 207.144 105.278 208.94 104.407 210.226C103.992 210.82 103.667 211.295 103.414 211.656C103.186 211.98 103.06 212.148 103.048 212.142C103.036 212.136 103.138 211.95 103.348 211.613C103.583 211.247 103.889 210.754 104.274 210.142C105.122 208.838 106.307 207.018 107.756 204.777C110.72 200.259 114.846 194.047 119.482 187.228C124.112 180.41 128.387 174.294 131.586 169.938C133.18 167.757 134.521 166.027 135.459 164.844C135.928 164.291 136.307 163.852 136.589 163.522C136.854 163.222 136.992 163.071 137.004 163.077V163.071Z" fill="#455B64"/>
<path d="M133.808 70.0461C133.874 70.0461 133.868 69.2351 134.091 67.9555C134.307 66.6818 134.806 64.9336 135.792 63.2274C136.749 61.4972 138.065 60.2116 139.244 59.7129C140.429 59.2023 141.271 59.4726 141.271 59.3885C141.271 59.3705 141.084 59.2744 140.711 59.2383C140.338 59.1903 139.779 59.2203 139.136 59.4546C137.849 59.9112 136.424 61.2569 135.444 63.0292C134.427 64.7894 133.958 66.6037 133.808 67.9134C133.658 69.2291 133.76 70.0521 133.808 70.0461Z" fill="#263238"/>
<path d="M131.132 57.5262L114.121 60.1636L111.09 62.7829C111.09 62.7829 100.381 83.6115 100.188 87.8169C99.9717 92.4669 102.467 100.445 102.467 100.445L100.02 118.847C99.659 120.961 101.03 122.986 101.956 122.986L131.343 119.051C135.173 118.3 136.749 116.299 136.514 114.083L136.075 109.979L148.625 67.9795C149.37 70.4607 148.21 61.287 142.605 59.2264C140.23 58.3552 134.746 56.7692 131.138 57.5202L131.132 57.5262Z" fill="#E2B424"/>
<path d="M112.653 61.5453C112.653 61.5453 107.416 65.5765 102.461 70.1603C97.5061 74.7442 84.283 83.9179 84.283 83.9179L83.375 64.7294L73.3991 63.3777C73.3991 63.3777 68.5223 87.3002 71.6191 93.9087C74.7099 100.511 78.4081 100.793 88.6907 97.4893C98.9733 94.185 101.908 92.7192 101.908 92.7192L112.653 61.5393V61.5453Z" fill="#E2B424"/>
<path d="M110.026 64.3929C110.026 64.3929 109.936 64.489 109.791 64.6873C109.629 64.9276 109.425 65.2219 109.178 65.5824C108.655 66.3634 107.909 67.5049 107.025 68.9347C105.275 71.7943 102.882 75.8375 101.319 80.7638C99.7552 85.6961 99.6951 90.5143 100.441 93.8065C100.796 95.4586 101.271 96.7503 101.673 97.6033C101.854 98.0359 102.052 98.3483 102.167 98.5706C102.287 98.7869 102.353 98.901 102.365 98.889C102.395 98.871 102.167 98.4024 101.812 97.5373C101.457 96.6722 101.03 95.3805 100.711 93.7464C100.05 90.4782 100.152 85.7442 101.691 80.872C103.237 75.9997 105.576 71.9565 107.26 69.0669C108.102 67.6671 108.787 66.5136 109.304 65.6545C109.521 65.282 109.701 64.9756 109.851 64.7233C109.972 64.507 110.032 64.3929 110.02 64.3809L110.026 64.3929Z" fill="#263238"/>
<path d="M139.4 59.2323C139.4 59.2323 134.103 66.1652 133.814 72.5213C133.525 78.8774 143.321 117.002 143.321 117.002L151.908 151.805L162.599 147.864C162.599 147.864 160.11 123.088 159.641 120.012C158.655 113.602 154.427 101.106 153.844 93.8846C153.267 86.6574 150.585 72.7436 149.262 69.4934C147.939 66.2373 147.885 59.0581 139.406 59.2383L139.4 59.2323Z" fill="#E2B424"/>
<path d="M134.253 76.0359C134.253 76.0359 134.247 76.1681 134.271 76.4084C134.307 76.6967 134.343 77.0452 134.397 77.4717C134.524 78.3909 134.734 79.7186 135.023 81.3467C135.606 84.6089 136.538 89.0966 137.657 94.0289C138.775 98.9612 139.863 103.413 140.693 106.621C141.108 108.225 141.457 109.523 141.71 110.412C141.83 110.82 141.932 111.157 142.016 111.433C142.088 111.667 142.136 111.788 142.148 111.782C142.161 111.782 142.142 111.649 142.094 111.409C142.028 111.127 141.956 110.784 141.86 110.37C141.631 109.409 141.331 108.117 140.964 106.549C140.2 103.263 139.178 98.8351 138.041 93.9328C136.929 89.0005 135.955 84.5308 135.299 81.2866C134.993 79.7066 134.74 78.4089 134.548 77.4357C134.47 77.0152 134.403 76.6727 134.349 76.3844C134.301 76.144 134.265 76.0179 134.253 76.0239V76.0359Z" fill="#263238"/>
<g opacity="0.3">
<path d="M133.489 118.468C131.806 116.78 131.451 114.215 131.186 111.842C130.344 104.296 129.503 96.7503 128.661 89.2046C128.138 84.5006 127.638 79.5683 129.418 75.1767C129.683 74.5158 130.08 73.8129 130.759 73.6207C131.409 73.4344 132.118 73.8129 132.527 74.3536C132.936 74.8943 134.085 75.6693 134.253 76.3241C135.967 83.0527 136.712 89.6732 138.426 96.4018C138.877 98.1801 139.472 98.114 139.076 99.9043C138.504 102.506 136.063 109.979 136.063 109.979C136.063 109.979 136.412 112.689 136.514 114.275C136.616 115.861 135.69 117.831 133.483 118.468" fill="black"/>
</g>
<path d="M135.065 79.7846C135.065 79.7846 135.257 79.9588 135.648 80.2052C136.039 80.4515 136.61 80.7939 137.374 81.1303C138.132 81.4548 139.112 81.7852 140.248 81.7131C141.391 81.653 142.539 81.0943 143.586 80.4034C144.644 79.7065 145.582 78.9856 146.55 78.541C147.506 78.0844 148.468 77.9403 149.25 78.1025C150.038 78.2406 150.591 78.6131 150.898 78.9315C151.204 79.2559 151.307 79.4902 151.343 79.4782C151.361 79.4782 151.307 79.2079 151.012 78.8294C150.723 78.4569 150.14 78.0124 149.304 77.8321C148.474 77.6158 147.404 77.748 146.394 78.2166C145.372 78.6612 144.397 79.4001 143.363 80.079C142.335 80.7579 141.258 81.2865 140.212 81.3586C139.166 81.4488 138.222 81.1724 137.47 80.884C135.967 80.2712 135.089 79.7305 135.059 79.7966L135.065 79.7846Z" fill="#FAFBFB"/>
<path d="M101.92 78.9736C101.92 78.9736 101.962 79.0757 102.07 79.2559C102.178 79.4422 102.371 79.6885 102.648 79.9828C103.201 80.5656 104.199 81.2745 105.612 81.659C107.007 82.0495 108.787 82.1396 110.663 81.7311C112.539 81.3406 114.488 80.5476 116.538 79.8387C120.633 78.3187 124.692 78.4689 127.446 79.1057C130.224 79.7305 131.776 80.6437 131.812 80.5596C131.818 80.5476 131.727 80.4875 131.541 80.3854C131.355 80.2832 131.084 80.127 130.717 79.9648C129.99 79.6224 128.907 79.1838 127.506 78.8354C126.111 78.4869 124.391 78.2406 122.485 78.2947C120.579 78.3247 118.48 78.7272 116.412 79.4662C114.343 80.1811 112.419 80.9741 110.591 81.3766C108.769 81.7972 107.049 81.7371 105.69 81.3946C104.319 81.0582 103.333 80.4154 102.762 79.8807C102.185 79.34 101.962 78.9495 101.926 78.9796L101.92 78.9736Z" fill="#FAFBFB"/>
<path d="M95.6662 75.6033C95.6241 75.6033 95.5098 76.204 95.588 77.1953C95.6601 78.1806 95.9668 79.5443 96.6764 80.89C97.3859 82.2358 98.336 83.2631 99.1117 83.8759C99.8874 84.4946 100.453 84.747 100.471 84.7109C100.507 84.6569 100.002 84.3204 99.2921 83.6656C98.5826 83.0168 97.7106 82.0015 97.0251 80.7098C96.3456 79.4121 96.0029 78.1205 95.8646 77.1653C95.7203 76.2161 95.7323 75.6093 95.6662 75.6033Z" fill="#FAFBFB"/>
<g opacity="0.3">
<path d="M106.598 69.4874C98.5645 77.5437 91.6553 86.5072 88.6968 97.4892C93.2849 95.9873 97.6264 94.5275 100.495 93.3379C100.495 93.3379 99.6348 88.8141 100.152 86.1467C100.789 82.8906 100.789 80.1571 106.598 69.4874Z" fill="black"/>
</g>
<path d="M84.4335 83.96C84.5177 84.0501 83.5255 84.9753 82.8279 86.4532C82.1124 87.919 82.0101 89.2708 81.8899 89.2648C81.7876 89.2768 81.7095 87.8409 82.4671 86.2789C83.2068 84.7169 84.3854 83.8759 84.4335 83.96Z" fill="#263238"/>
</svg>
