<svg width="24" height="24" viewBox="0 0 24 24" fill="none" xmlns="http://www.w3.org/2000/svg">
<g clip-path="url(#clip0_8_477)">
<path d="M0.75 12C0.75 14.2125 1.3875 16.275 2.475 18H21.4875C22.575 16.275 23.2125 14.2125 23.2125 12C23.2125 9.7875 22.575 7.725 21.4875 6H2.475C1.3875 7.725 0.75 9.7875 0.75 12Z" fill="#FFCE31"/>
<path d="M21.525 6C19.5375 2.85 16.0125 0.75 12 0.75C7.98748 0.75 4.46248 2.85 2.47498 6H21.525ZM2.47498 18C4.46248 21.15 7.98748 23.25 12 23.25C16.0125 23.25 19.5375 21.15 21.525 18H2.47498Z" fill="#ED4C5C"/>
<path d="M3.44995 10.7625H4.64995V11.4375H3.44995V10.7625ZM3.44995 15.7125H4.68745V16.35H3.44995V15.7125Z" fill="#C8B100"/>
<path d="M3.33752 14.6625C3.22502 14.7375 3.15002 14.8125 3.15002 14.85C3.15002 14.8875 3.18752 14.925 3.26252 14.9625C3.33752 15 3.41252 15.075 3.37502 15.15C3.45002 15.075 3.48752 15 3.48752 14.925C3.48752 14.8125 3.41252 14.7 3.33752 14.6625Z" fill="#ED4C5C"/>
<path d="M3.63745 11.4375H4.49995V15.7125H3.63745V11.4375Z" fill="white"/>
<path d="M5.39999 13.0125C5.21249 12.9375 4.87499 12.8625 4.49999 12.8625C4.38749 12.8625 4.23749 12.8625 4.08749 12.9C3.56249 12.975 3.14999 13.2 3.18749 13.35L2.99999 12.9375C2.96249 12.75 3.41249 12.525 3.97499 12.4125C4.16249 12.375 4.34999 12.375 4.49999 12.375C4.87499 12.375 5.21249 12.4125 5.39999 12.4875V13.0125Z" fill="#ED4C5C"/>
<path d="M3.63748 13.575C3.41248 13.575 3.22498 13.5 3.22498 13.3875C3.22498 13.3125 3.29998 13.2 3.44998 13.125H3.67498L3.63748 13.575ZM4.49998 13.2375C4.64998 13.275 4.76248 13.3125 4.83748 13.35C4.87498 13.3875 4.72498 13.5375 4.49998 13.65V13.2375Z" fill="#ED4C5C"/>
<path d="M3.07498 14.4C3.03748 14.325 3.29998 14.175 3.63748 14.0625C3.78748 14.025 3.89998 13.95 4.08748 13.875C4.53748 13.6875 4.91248 13.425 4.83748 13.35L4.91248 13.8C4.94998 13.875 4.64998 14.1 4.19998 14.325C4.04998 14.4 3.78748 14.5125 3.63748 14.55C3.37498 14.625 3.14998 14.775 3.14998 14.8125L3.07498 14.4Z" fill="#ED4C5C"/>
<path d="M11.5125 10.7625H12.7125V11.4375H11.5125V10.7625ZM11.475 15.7125H12.7125V16.35H11.475V15.7125Z" fill="#C8B100"/>
<path d="M12.825 14.6625C12.9375 14.7375 13.0125 14.8125 13.0125 14.85C13.0125 14.8875 12.975 14.925 12.9 14.9625C12.825 15.0375 12.75 15.15 12.7875 15.1875C12.7125 15.1125 12.675 15.0375 12.675 14.9625C12.675 14.8125 12.75 14.7 12.825 14.6625Z" fill="#ED4C5C"/>
<path d="M11.6625 11.4375H12.525V15.7125H11.6625V11.4375Z" fill="white"/>
<path d="M10.7626 13.0125C10.9501 12.9375 11.2876 12.8625 11.6626 12.8625C11.7751 12.8625 11.9251 12.8625 12.0751 12.9C12.6001 12.975 13.0126 13.2 12.9751 13.35L13.1626 12.9C13.2001 12.7125 12.7501 12.4875 12.1876 12.375H11.6626C11.2876 12.375 10.9501 12.4125 10.7626 12.4875V13.0125Z" fill="#ED4C5C"/>
<path d="M12.5251 13.575C12.7501 13.575 12.9376 13.5 12.9376 13.3875C12.9376 13.3125 12.8626 13.2 12.7126 13.125H12.4876L12.5251 13.575ZM11.6626 13.2375C11.5126 13.275 11.4001 13.3125 11.3251 13.35C11.2876 13.3875 11.4376 13.5375 11.6626 13.65V13.2375Z" fill="#ED4C5C"/>
<path d="M13.0875 14.4C13.125 14.325 12.8625 14.175 12.525 14.0625C12.375 14.025 12.2625 13.95 12.075 13.875C11.625 13.6875 11.25 13.425 11.325 13.35L11.25 13.8C11.2125 13.875 11.5125 14.1 11.9625 14.325C12.1125 14.4 12.375 14.5125 12.525 14.55C12.7875 14.625 13.0125 14.8125 12.975 14.85L13.0875 14.4ZM8.06255 8.36255C8.77505 8.36255 10.2375 8.51255 10.7625 9.03755C10.2 10.3875 9.30005 9.82505 8.06255 9.82505C6.86255 9.82505 5.92505 10.3875 5.36255 9.03755C5.88755 8.51255 7.31255 8.36255 8.06255 8.36255Z" fill="#ED4C5C"/>
<path d="M9.90005 9.8625C9.45005 9.6 8.77505 9.5625 8.06255 9.5625C7.35005 9.5625 6.67505 9.6375 6.22505 9.8625L6.37505 10.5C6.78755 10.6125 7.38755 10.6875 8.06255 10.6875C8.73755 10.6875 9.30005 10.6125 9.75005 10.5L9.90005 9.8625ZM10.5375 8.25C10.3875 8.1375 10.0875 8.025 9.82505 8.025C9.71255 8.025 9.60005 8.025 9.48755 8.0625C9.48755 8.0625 9.26255 7.7625 8.73755 7.7625C8.55005 7.7625 8.40005 7.8 8.25005 7.875V7.8375C8.21255 7.7625 8.13755 7.6875 8.06255 7.6875C7.98755 7.6875 7.87505 7.8 7.87505 7.875V7.9125C7.72505 7.8375 7.57505 7.8 7.38755 7.8C6.86255 7.8 6.63755 8.1375 6.63755 8.1C6.52505 8.0625 6.41255 8.0625 6.30005 8.0625C4.57505 8.0625 5.43755 9.225 5.43755 9.225L5.62505 9C5.21255 8.475 5.58755 8.175 6.33755 8.175C6.45005 8.175 6.52505 8.175 6.60005 8.2125C6.33755 8.5875 6.82505 8.925 6.82505 8.925L6.93755 8.7375C6.67505 8.55 6.63755 7.9125 7.38755 7.9125C7.57505 7.9125 7.72505 7.95 7.87505 8.0625C7.87505 8.1 7.83755 8.625 7.80005 8.7L8.10005 8.9625L8.40005 8.7C8.36255 8.5875 8.32505 8.1 8.32505 8.0625C8.43755 7.9875 8.62505 7.9125 8.81255 7.9125C9.60005 7.9125 9.60005 8.55 9.26255 8.7375L9.37505 8.925C9.37505 8.925 9.78755 8.5875 9.60005 8.2125C9.67505 8.2125 9.78755 8.175 9.86255 8.175C10.7625 8.175 10.8 8.85 10.575 9L10.725 9.225C10.65 9.225 11.0625 8.7 10.5375 8.25Z" fill="#C8B100"/>
<path d="M7.83752 7.5375C7.83752 7.425 7.95002 7.3125 8.06252 7.3125C8.21252 7.3125 8.28752 7.425 8.28752 7.5375C8.28752 7.65 8.17502 7.7625 8.06252 7.7625C7.95002 7.7625 7.83752 7.65 7.83752 7.5375Z" fill="#005BBF"/>
<path d="M7.98752 6.90002V7.01252H7.87502V7.12502H7.98752V7.50002H7.83752V7.61252H8.28752L8.32502 7.53752L8.28752 7.50002H8.13752V7.12502H8.25002V7.01252H8.13752V6.90002H7.98752Z" fill="#C8B100"/>
<path d="M8.06252 10.6125C7.46252 10.6125 6.93752 10.5375 6.52502 10.425C6.93752 10.3125 7.46252 10.2375 8.06252 10.2375C8.66252 10.2375 9.18752 10.3125 9.60002 10.425C9.22502 10.5375 8.66252 10.6125 8.06252 10.6125Z" fill="#ED4C5C"/>
<path d="M8.10002 17.1C7.38752 17.1 6.71252 16.9125 6.11252 16.65C5.66252 16.425 5.40002 16.0125 5.40002 15.525V13.725H10.8V15.525C10.8 16.0125 10.5 16.4625 10.0875 16.65C9.48752 16.95 8.81252 17.1 8.10002 17.1ZM8.06252 10.725H10.7625V13.725H8.06252V10.725Z" fill="white"/>
<path d="M8.10002 15.525C8.10002 16.2375 7.50002 16.8 6.75002 16.8C6.00002 16.8 5.40002 16.2375 5.40002 15.525V13.725H8.10002V15.525Z" fill="#ED4C5C"/>
<path d="M5.96255 16.575C6.03755 16.6125 6.15005 16.6875 6.30005 16.725V13.65H6.00005L5.96255 16.575ZM5.36255 15.4875C5.36255 15.8625 5.51255 16.1625 5.66255 16.3125V13.65H5.36255V15.4875Z" fill="#C8B100"/>
<path d="M6.5625 16.8H6.8625V13.65H6.5625V16.8Z" fill="#C7B500"/>
<path d="M7.16248 16.725C7.27498 16.6875 7.42498 16.6125 7.49998 16.575V13.65H7.19998L7.16248 16.725Z" fill="#C8B100"/>
<path d="M5.36255 10.725H8.06255V13.725H5.36255V10.725Z" fill="#ED4C5C"/>
<path d="M7.80005 16.3125C7.95005 16.2 8.06255 15.9375 8.10005 15.6375V13.6875H7.80005V16.3125Z" fill="#C8B100"/>
<path d="M10.8 13.725V15.525C10.8 16.2375 10.2 16.8 9.45002 16.8C8.70002 16.8 8.10002 16.2375 8.10002 15.525V13.725H10.8ZM9.82502 11.25C9.93752 11.475 9.93752 12.0375 9.60002 11.925C9.67502 11.9625 9.71252 12.225 9.82502 12.375C10.0125 12.6 10.2375 12.4125 10.2 12.15C10.125 11.7375 10.1625 11.475 10.2375 11.0625C10.2375 11.1 10.425 11.1 10.5 11.025C10.4625 11.1375 10.425 11.2875 10.5 11.2875C10.425 11.4 10.2375 11.5875 10.2 11.7C10.1625 11.9625 10.575 12.45 10.125 12.5625C9.82502 12.6375 10.0125 12.8625 10.125 12.975C10.125 12.975 9.97502 13.4625 10.05 13.425C9.75002 13.5375 9.82502 13.275 9.82502 13.275C9.97502 12.825 9.56252 12.7875 9.60002 12.7125C9.22502 12.675 9.63752 13.05 9.30002 13.05C9.22502 13.05 9.07502 13.125 9.07502 13.125C8.66252 13.0875 8.88752 12.7125 9.03752 12.75C9.15002 12.7875 9.26252 12.975 9.26252 12.7125C9.26252 12.7125 9.07502 12.4125 9.56252 12.4125C9.37502 12.4125 9.26252 12.2625 9.18752 12.075C9.11252 12.1125 9.00002 12.3 8.58752 12.3375C8.58752 12.3375 8.47502 11.925 8.58752 12C8.73752 12.075 8.81252 12.075 8.96252 11.925C8.88752 11.8125 8.43752 11.6625 8.51252 11.4C8.51252 11.325 8.73752 11.2125 8.73752 11.2125C8.70002 11.4 8.81252 11.5875 9.03752 11.5875C9.33752 11.625 9.22502 11.5125 9.26252 11.4375C9.30002 11.3625 9.52502 11.475 9.45002 11.2875C9.45002 11.25 9.18752 11.2125 9.26252 11.1C9.41252 10.9125 9.63752 11.0625 9.82502 11.25ZM8.10002 16.725L8.02502 16.5375L8.10002 16.3125L8.17502 16.5375L8.10002 16.725Z" fill="#ED4C5C"/>
<path d="M6.18752 11.3625V11.55H6.26252V11.7H6.07502V12.075H6.18752V12.9H5.96252V13.3125H7.50002V12.9H7.31252V12.075H7.38752V11.7H7.20002V11.55H7.31252V11.3625H6.93752V11.55H7.01252V11.7H6.82502V11.25H6.93752V11.0625H6.52502V11.25H6.63752V11.7H6.45002V11.55H6.52502V11.3625H6.18752ZM10.425 15.975V14.1H8.47502V15.975L9.37502 16.3875H9.48752L10.425 15.975ZM9.37502 14.25V14.8875L8.73752 14.25H9.37502ZM8.58752 14.2875L9.33752 15.0375L8.58752 15.7875V14.2875ZM8.66252 15.9375L9.37502 15.225V16.275L8.66252 15.9375ZM9.48752 16.2375V15.1875L10.2 15.9L9.48752 16.2375ZM10.275 15.7875L9.52502 15.0375L10.275 14.2875V15.7875ZM9.48752 14.25H10.125L9.48752 14.8875V14.25Z" fill="#C8B100"/>
<path d="M7.19995 13.6875C7.19995 13.125 7.57495 12.7125 8.06245 12.7125C8.54995 12.7125 8.92495 13.1625 8.92495 13.6875C8.92495 14.2125 8.54995 14.6625 8.06245 14.6625C7.57495 14.6625 7.19995 14.25 7.19995 13.6875Z" fill="#ED4C5C"/>
<path d="M7.46252 13.6875C7.46252 13.275 7.72502 12.975 8.06252 12.975C8.40002 12.975 8.66252 13.3125 8.66252 13.6875C8.66252 14.1 8.40002 14.4 8.06252 14.4C7.76252 14.4375 7.46252 14.1 7.46252 13.6875Z" fill="#005BBF"/>
<path d="M7.80002 13.2L7.65002 13.6125L7.76252 13.65L7.68752 13.8H7.91252L7.83752 13.65L7.95002 13.6125L7.80002 13.2ZM8.36252 13.2L8.21252 13.6125L8.32502 13.65L8.25002 13.8H8.47502L8.43752 13.65L8.55002 13.6125L8.36252 13.2ZM8.10002 13.6875L7.91252 14.1L8.02502 14.1375L7.98752 14.2875H8.17502L8.13752 14.1375L8.25002 14.1L8.10002 13.6875Z" fill="#C8B100"/>
</g>
<defs>
<clipPath id="clip0_8_477">
<rect width="24" height="24" fill="white"/>
</clipPath>
</defs>
</svg>
